<mxfile host="app.diagrams.net" modified="2021-01-09T13:51:55.041Z" agent="5.0 (Windows NT 10.0; Win64; x64) AppleWebKit/537.36 (KHTML, like Gecko) Chrome/87.0.4280.88 Safari/537.36" etag="YkPnR8N1bjos1DEjZGwv" version="14.1.8" type="github" pages="5">
  <diagram id="QHoWRKL4ebVMWTuD5d6k" name="第 1 页">
    <mxGraphModel dx="1422" dy="738" grid="1" gridSize="10" guides="1" tooltips="1" connect="1" arrows="1" fold="1" page="1" pageScale="1" pageWidth="827" pageHeight="1169" math="0" shadow="0">
      <root>
        <mxCell id="0" />
        <mxCell id="1" parent="0" />
        <mxCell id="dPF1KNN2-wdo8xk07QdL-18" style="edgeStyle=orthogonalEdgeStyle;rounded=0;orthogonalLoop=1;jettySize=auto;html=1;fontSize=18;strokeWidth=3;" edge="1" parent="1" target="dPF1KNN2-wdo8xk07QdL-8">
          <mxGeometry relative="1" as="geometry">
            <mxPoint x="570" y="180" as="sourcePoint" />
          </mxGeometry>
        </mxCell>
        <mxCell id="dPF1KNN2-wdo8xk07QdL-20" style="edgeStyle=orthogonalEdgeStyle;rounded=0;orthogonalLoop=1;jettySize=auto;html=1;strokeWidth=3;fontSize=18;dashed=1;" edge="1" parent="1" source="dPF1KNN2-wdo8xk07QdL-8">
          <mxGeometry relative="1" as="geometry">
            <mxPoint x="1100" y="200" as="targetPoint" />
          </mxGeometry>
        </mxCell>
        <mxCell id="dPF1KNN2-wdo8xk07QdL-8" value="" style="rounded=1;whiteSpace=wrap;html=1;dashed=1;strokeWidth=2;" vertex="1" parent="1">
          <mxGeometry x="160" y="270" width="820" height="190" as="geometry" />
        </mxCell>
        <mxCell id="dPF1KNN2-wdo8xk07QdL-1" value="&lt;font style=&quot;font-size: 24px&quot;&gt;域名管理&lt;/font&gt;" style="rounded=1;whiteSpace=wrap;html=1;fillColor=#d5e8d4;strokeColor=#82b366;" vertex="1" parent="1">
          <mxGeometry x="215" y="340" width="120" height="60" as="geometry" />
        </mxCell>
        <mxCell id="dPF1KNN2-wdo8xk07QdL-2" value="&lt;font style=&quot;font-size: 24px&quot;&gt;流量包&lt;/font&gt;" style="rounded=1;whiteSpace=wrap;html=1;fillColor=#d5e8d4;strokeColor=#82b366;" vertex="1" parent="1">
          <mxGeometry x="415" y="340" width="120" height="60" as="geometry" />
        </mxCell>
        <mxCell id="dPF1KNN2-wdo8xk07QdL-3" value="&lt;font style=&quot;font-size: 24px&quot;&gt;刷新&lt;/font&gt;" style="rounded=1;whiteSpace=wrap;html=1;fillColor=#d5e8d4;strokeColor=#82b366;" vertex="1" parent="1">
          <mxGeometry x="605" y="340" width="120" height="60" as="geometry" />
        </mxCell>
        <mxCell id="dPF1KNN2-wdo8xk07QdL-6" value="&lt;font style=&quot;font-size: 24px&quot;&gt;数据查询&lt;/font&gt;" style="rounded=1;whiteSpace=wrap;html=1;fillColor=#d5e8d4;strokeColor=#82b366;" vertex="1" parent="1">
          <mxGeometry x="795" y="340" width="120" height="60" as="geometry" />
        </mxCell>
        <mxCell id="dPF1KNN2-wdo8xk07QdL-10" value="Dnspod解析" style="rounded=0;whiteSpace=wrap;html=1;strokeWidth=2;fillColor=#dae8fc;strokeColor=#6c8ebf;fontSize=18;" vertex="1" parent="1">
          <mxGeometry x="160" y="600" width="120" height="60" as="geometry" />
        </mxCell>
        <mxCell id="dPF1KNN2-wdo8xk07QdL-11" value="静态加速平台" style="rounded=0;whiteSpace=wrap;html=1;strokeWidth=2;fillColor=#dae8fc;strokeColor=#6c8ebf;fontSize=18;" vertex="1" parent="1">
          <mxGeometry x="330" y="600" width="120" height="60" as="geometry" />
        </mxCell>
        <mxCell id="dPF1KNN2-wdo8xk07QdL-12" value="对象存储" style="rounded=0;whiteSpace=wrap;html=1;strokeWidth=2;fillColor=#dae8fc;strokeColor=#6c8ebf;fontSize=18;" vertex="1" parent="1">
          <mxGeometry x="500" y="600" width="120" height="60" as="geometry" />
        </mxCell>
        <mxCell id="dPF1KNN2-wdo8xk07QdL-13" value="云函数" style="rounded=0;whiteSpace=wrap;html=1;strokeWidth=2;fillColor=#dae8fc;strokeColor=#6c8ebf;fontSize=18;" vertex="1" parent="1">
          <mxGeometry x="670" y="600" width="120" height="60" as="geometry" />
        </mxCell>
        <mxCell id="dPF1KNN2-wdo8xk07QdL-14" value="刷新" style="rounded=0;whiteSpace=wrap;html=1;strokeWidth=2;fillColor=#dae8fc;strokeColor=#6c8ebf;fontSize=18;" vertex="1" parent="1">
          <mxGeometry x="840" y="600" width="120" height="60" as="geometry" />
        </mxCell>
        <mxCell id="dPF1KNN2-wdo8xk07QdL-15" value="接入层" style="text;html=1;resizable=0;autosize=1;align=center;verticalAlign=middle;points=[];fillColor=none;strokeColor=none;rounded=0;fontSize=18;" vertex="1" parent="1">
          <mxGeometry x="215" y="290" width="70" height="30" as="geometry" />
        </mxCell>
        <mxCell id="dPF1KNN2-wdo8xk07QdL-19" value="云API3.0" style="text;html=1;resizable=0;autosize=1;align=center;verticalAlign=middle;points=[];fillColor=none;strokeColor=none;rounded=0;fontSize=18;" vertex="1" parent="1">
          <mxGeometry x="460" y="200" width="90" height="30" as="geometry" />
        </mxCell>
        <mxCell id="dPF1KNN2-wdo8xk07QdL-21" value="服务端返回" style="text;html=1;resizable=0;autosize=1;align=center;verticalAlign=middle;points=[];fillColor=none;strokeColor=none;rounded=0;fontSize=18;" vertex="1" parent="1">
          <mxGeometry x="990" y="370" width="110" height="30" as="geometry" />
        </mxCell>
        <mxCell id="dPF1KNN2-wdo8xk07QdL-28" value="" style="endArrow=classic;startArrow=classic;html=1;strokeWidth=3;fontSize=18;" edge="1" parent="1">
          <mxGeometry width="50" height="50" relative="1" as="geometry">
            <mxPoint x="580" y="567" as="sourcePoint" />
            <mxPoint x="580" y="497" as="targetPoint" />
            <Array as="points">
              <mxPoint x="580" y="557" />
            </Array>
          </mxGeometry>
        </mxCell>
      </root>
    </mxGraphModel>
  </diagram>
  <diagram id="lIJj9QDRfHpuoicCOk4q" name="第 2 页">
    <mxGraphModel dx="1422" dy="738" grid="1" gridSize="10" guides="1" tooltips="1" connect="1" arrows="1" fold="1" page="1" pageScale="1" pageWidth="827" pageHeight="1169" math="0" shadow="0">
      <root>
        <mxCell id="VKhto32yAjTV9OcO8Erf-0" />
        <mxCell id="VKhto32yAjTV9OcO8Erf-1" parent="VKhto32yAjTV9OcO8Erf-0" />
        <mxCell id="VKhto32yAjTV9OcO8Erf-23" style="edgeStyle=orthogonalEdgeStyle;rounded=0;orthogonalLoop=1;jettySize=auto;html=1;entryX=0.009;entryY=0.767;entryDx=0;entryDy=0;entryPerimeter=0;strokeWidth=1;fontSize=18;curved=1;" edge="1" parent="VKhto32yAjTV9OcO8Erf-1" source="VKhto32yAjTV9OcO8Erf-7" target="VKhto32yAjTV9OcO8Erf-11">
          <mxGeometry relative="1" as="geometry" />
        </mxCell>
        <mxCell id="VKhto32yAjTV9OcO8Erf-24" style="edgeStyle=orthogonalEdgeStyle;curved=1;rounded=0;orthogonalLoop=1;jettySize=auto;html=1;entryX=0.009;entryY=0.75;entryDx=0;entryDy=0;entryPerimeter=0;strokeWidth=1;fontSize=18;" edge="1" parent="VKhto32yAjTV9OcO8Erf-1" source="VKhto32yAjTV9OcO8Erf-7" target="VKhto32yAjTV9OcO8Erf-14">
          <mxGeometry relative="1" as="geometry" />
        </mxCell>
        <mxCell id="VKhto32yAjTV9OcO8Erf-7" value="" style="pointerEvents=1;shadow=0;dashed=0;html=1;strokeColor=#10739e;fillColor=#b1ddf0;labelPosition=center;verticalLabelPosition=bottom;verticalAlign=top;align=center;outlineConnect=0;shape=mxgraph.veeam.cluster;fontSize=18;" vertex="1" parent="VKhto32yAjTV9OcO8Erf-1">
          <mxGeometry x="340" y="250.22" width="140" height="69.55" as="geometry" />
        </mxCell>
        <mxCell id="VKhto32yAjTV9OcO8Erf-19" value="" style="group" vertex="1" connectable="0" parent="VKhto32yAjTV9OcO8Erf-1">
          <mxGeometry x="120" y="250.22" width="121" height="77.99999999999997" as="geometry" />
        </mxCell>
        <mxCell id="VKhto32yAjTV9OcO8Erf-4" value="" style="outlineConnect=0;dashed=0;verticalLabelPosition=bottom;verticalAlign=top;align=center;html=1;shape=mxgraph.aws3.management_console;fillColor=#647687;strokeWidth=2;fontSize=18;strokeColor=#314354;fontColor=#ffffff;" vertex="1" parent="VKhto32yAjTV9OcO8Erf-19">
          <mxGeometry y="7.5" width="63" height="63" as="geometry" />
        </mxCell>
        <mxCell id="VKhto32yAjTV9OcO8Erf-5" value="" style="outlineConnect=0;strokeColor=#314354;dashed=0;verticalLabelPosition=bottom;verticalAlign=top;align=center;html=1;fontSize=12;fontStyle=0;aspect=fixed;pointerEvents=1;shape=mxgraph.aws4.mobile_client;fillColor=#647687;fontColor=#ffffff;" vertex="1" parent="VKhto32yAjTV9OcO8Erf-19">
          <mxGeometry x="80" width="41" height="78" as="geometry" />
        </mxCell>
        <mxCell id="VKhto32yAjTV9OcO8Erf-15" value="SCF" style="text;html=1;resizable=0;autosize=1;align=center;verticalAlign=middle;points=[];fillColor=none;strokeColor=none;rounded=0;fontSize=18;" vertex="1" parent="VKhto32yAjTV9OcO8Erf-1">
          <mxGeometry x="601" y="356" width="50" height="30" as="geometry" />
        </mxCell>
        <mxCell id="VKhto32yAjTV9OcO8Erf-21" value="" style="group" vertex="1" connectable="0" parent="VKhto32yAjTV9OcO8Erf-1">
          <mxGeometry x="570" y="170" width="110" height="210" as="geometry" />
        </mxCell>
        <mxCell id="VKhto32yAjTV9OcO8Erf-11" value="" style="verticalLabelPosition=bottom;html=1;verticalAlign=top;align=center;strokeColor=#10739e;fillColor=#b1ddf0;shape=mxgraph.azure.cloud;fontSize=18;" vertex="1" parent="VKhto32yAjTV9OcO8Erf-21">
          <mxGeometry width="110" height="60" as="geometry" />
        </mxCell>
        <mxCell id="VKhto32yAjTV9OcO8Erf-13" value="COS" style="text;html=1;resizable=0;autosize=1;align=center;verticalAlign=middle;points=[];fillColor=none;strokeColor=none;rounded=0;fontSize=18;" vertex="1" parent="VKhto32yAjTV9OcO8Erf-21">
          <mxGeometry x="30" y="30" width="50" height="30" as="geometry" />
        </mxCell>
        <mxCell id="VKhto32yAjTV9OcO8Erf-14" value="" style="verticalLabelPosition=bottom;html=1;verticalAlign=top;align=center;strokeColor=#10739e;fillColor=#b1ddf0;shape=mxgraph.azure.cloud;fontSize=18;" vertex="1" parent="VKhto32yAjTV9OcO8Erf-21">
          <mxGeometry y="150" width="110" height="60" as="geometry" />
        </mxCell>
        <mxCell id="VKhto32yAjTV9OcO8Erf-20" value="SCF" style="text;html=1;resizable=0;autosize=1;align=center;verticalAlign=middle;points=[];fillColor=none;strokeColor=none;rounded=0;fontSize=18;" vertex="1" parent="VKhto32yAjTV9OcO8Erf-21">
          <mxGeometry x="31" y="176" width="50" height="30" as="geometry" />
        </mxCell>
        <mxCell id="VKhto32yAjTV9OcO8Erf-22" style="edgeStyle=orthogonalEdgeStyle;rounded=0;orthogonalLoop=1;jettySize=auto;html=1;strokeWidth=1;fontSize=18;" edge="1" parent="VKhto32yAjTV9OcO8Erf-1" source="VKhto32yAjTV9OcO8Erf-5">
          <mxGeometry relative="1" as="geometry">
            <mxPoint x="330" y="289" as="targetPoint" />
          </mxGeometry>
        </mxCell>
        <mxCell id="VKhto32yAjTV9OcO8Erf-25" value="CDN" style="text;html=1;resizable=0;autosize=1;align=center;verticalAlign=middle;points=[];fillColor=none;strokeColor=none;rounded=0;fontSize=18;" vertex="1" parent="VKhto32yAjTV9OcO8Erf-1">
          <mxGeometry x="385" y="291.77" width="50" height="30" as="geometry" />
        </mxCell>
      </root>
    </mxGraphModel>
  </diagram>
  <diagram id="M4F1LJ4UfPwWbP1UbbeT" name="第 3 页">
    <mxGraphModel dx="1422" dy="738" grid="1" gridSize="10" guides="1" tooltips="1" connect="1" arrows="1" fold="1" page="1" pageScale="1" pageWidth="827" pageHeight="1169" math="0" shadow="0">
      <root>
        <mxCell id="dGvC6pgZO7xLLV9TXabl-0" />
        <mxCell id="dGvC6pgZO7xLLV9TXabl-1" parent="dGvC6pgZO7xLLV9TXabl-0" />
        <mxCell id="hmTdwW-H3hikDuarrcab-45" value="" style="rounded=0;whiteSpace=wrap;html=1;dashed=1;strokeWidth=2;fontFamily=Tahoma;fontSize=18;" vertex="1" parent="dGvC6pgZO7xLLV9TXabl-1">
          <mxGeometry x="210" y="880" width="710" height="130" as="geometry" />
        </mxCell>
        <mxCell id="hmTdwW-H3hikDuarrcab-39" value="" style="rounded=0;whiteSpace=wrap;html=1;dashed=1;strokeWidth=2;fontFamily=Tahoma;fontSize=18;" vertex="1" parent="dGvC6pgZO7xLLV9TXabl-1">
          <mxGeometry x="210" y="740" width="710" height="110" as="geometry" />
        </mxCell>
        <mxCell id="dGvC6pgZO7xLLV9TXabl-2" value="云API" style="rounded=1;whiteSpace=wrap;html=1;fillColor=#d5e8d4;strokeColor=#82b366;fontStyle=1" vertex="1" parent="dGvC6pgZO7xLLV9TXabl-1">
          <mxGeometry x="200" y="520" width="800" height="35" as="geometry" />
        </mxCell>
        <mxCell id="dGvC6pgZO7xLLV9TXabl-3" value="" style="outlineConnect=0;gradientDirection=north;dashed=0;verticalLabelPosition=bottom;verticalAlign=top;align=center;html=1;fontSize=12;fontStyle=0;aspect=fixed;shape=mxgraph.aws4.resourceIcon;resIcon=mxgraph.aws4.customer_enablement;" vertex="1" parent="dGvC6pgZO7xLLV9TXabl-1">
          <mxGeometry x="443" y="410" width="78" height="78" as="geometry" />
        </mxCell>
        <mxCell id="dGvC6pgZO7xLLV9TXabl-4" value="" style="outlineConnect=0;gradientDirection=north;dashed=0;verticalLabelPosition=bottom;verticalAlign=top;align=center;html=1;fontSize=12;fontStyle=0;aspect=fixed;shape=mxgraph.aws4.resourceIcon;resIcon=mxgraph.aws4.customer_enablement;" vertex="1" parent="dGvC6pgZO7xLLV9TXabl-1">
          <mxGeometry x="692.75" y="410" width="78" height="78" as="geometry" />
        </mxCell>
        <mxCell id="hmTdwW-H3hikDuarrcab-15" value="配置分发" style="rounded=0;whiteSpace=wrap;html=1;strokeWidth=2;fillColor=#b1ddf0;fontSize=18;strokeColor=#10739e;" vertex="1" parent="dGvC6pgZO7xLLV9TXabl-1">
          <mxGeometry x="243.75" y="922" width="120" height="60" as="geometry" />
        </mxCell>
        <mxCell id="hmTdwW-H3hikDuarrcab-16" value="刷新服务" style="rounded=0;whiteSpace=wrap;html=1;strokeWidth=2;fillColor=#b1ddf0;fontSize=18;strokeColor=#10739e;" vertex="1" parent="dGvC6pgZO7xLLV9TXabl-1">
          <mxGeometry x="572.75" y="922" width="120" height="60" as="geometry" />
        </mxCell>
        <mxCell id="hmTdwW-H3hikDuarrcab-18" value="" style="outlineConnect=0;fontColor=#232F3E;gradientColor=none;fillColor=#3334B9;strokeColor=none;dashed=0;verticalLabelPosition=bottom;verticalAlign=top;align=center;html=1;fontSize=12;fontStyle=0;aspect=fixed;pointerEvents=1;shape=mxgraph.aws4.rds_mysql_instance_alt;" vertex="1" parent="dGvC6pgZO7xLLV9TXabl-1">
          <mxGeometry x="385" y="762" width="58" height="58" as="geometry" />
        </mxCell>
        <mxCell id="hmTdwW-H3hikDuarrcab-20" value="" style="aspect=fixed;html=1;points=[];align=center;image;fontSize=12;image=img/lib/mscae/Cache_Redis_Product.svg;strokeWidth=2;fillColor=#B3B3B3;" vertex="1" parent="dGvC6pgZO7xLLV9TXabl-1">
          <mxGeometry x="529" y="762" width="68.27" height="57.35" as="geometry" />
        </mxCell>
        <mxCell id="hmTdwW-H3hikDuarrcab-31" value="" style="group" vertex="1" connectable="0" parent="dGvC6pgZO7xLLV9TXabl-1">
          <mxGeometry x="243.75" y="609" width="680" height="100" as="geometry" />
        </mxCell>
        <mxCell id="hmTdwW-H3hikDuarrcab-32" value="" style="rounded=0;whiteSpace=wrap;html=1;strokeWidth=2;fontFamily=Tahoma;fontSize=18;dashed=1;" vertex="1" parent="hmTdwW-H3hikDuarrcab-31">
          <mxGeometry x="-35" y="-29" width="715" height="129" as="geometry" />
        </mxCell>
        <mxCell id="hmTdwW-H3hikDuarrcab-33" value="" style="group" vertex="1" connectable="0" parent="hmTdwW-H3hikDuarrcab-31">
          <mxGeometry y="5.5" width="651.25" height="40" as="geometry" />
        </mxCell>
        <mxCell id="hmTdwW-H3hikDuarrcab-0" value="用户管理" style="rounded=1;whiteSpace=wrap;html=1;strokeWidth=2;fillColor=#b1ddf0;fontSize=18;strokeColor=#10739e;fontFamily=Georgia;" vertex="1" parent="hmTdwW-H3hikDuarrcab-33">
          <mxGeometry y="14" width="105" height="40" as="geometry" />
        </mxCell>
        <mxCell id="hmTdwW-H3hikDuarrcab-1" value="域名管理" style="rounded=1;whiteSpace=wrap;html=1;strokeWidth=2;fillColor=#b1ddf0;fontSize=18;strokeColor=#10739e;" vertex="1" parent="hmTdwW-H3hikDuarrcab-33">
          <mxGeometry x="136.25" y="14" width="105" height="40" as="geometry" />
        </mxCell>
        <mxCell id="hmTdwW-H3hikDuarrcab-2" value="流量包" style="rounded=1;whiteSpace=wrap;html=1;strokeWidth=2;fillColor=#b1ddf0;fontSize=18;strokeColor=#10739e;" vertex="1" parent="hmTdwW-H3hikDuarrcab-33">
          <mxGeometry x="273.13" y="14" width="105" height="40" as="geometry" />
        </mxCell>
        <mxCell id="hmTdwW-H3hikDuarrcab-3" value="数据查询" style="rounded=1;whiteSpace=wrap;html=1;strokeWidth=2;fillColor=#b1ddf0;fontSize=18;strokeColor=#10739e;" vertex="1" parent="hmTdwW-H3hikDuarrcab-33">
          <mxGeometry x="411.25" y="14" width="105" height="40" as="geometry" />
        </mxCell>
        <mxCell id="hmTdwW-H3hikDuarrcab-27" value="刷新" style="rounded=1;whiteSpace=wrap;html=1;strokeWidth=2;fillColor=#b1ddf0;fontSize=18;strokeColor=#10739e;" vertex="1" parent="hmTdwW-H3hikDuarrcab-33">
          <mxGeometry x="546.25" y="14" width="105" height="40" as="geometry" />
        </mxCell>
        <mxCell id="hmTdwW-H3hikDuarrcab-34" value="逻辑层" style="text;html=1;resizable=0;autosize=1;align=center;verticalAlign=middle;points=[];fillColor=none;strokeColor=none;rounded=0;dashed=1;fontFamily=Tahoma;fontSize=18;" vertex="1" parent="hmTdwW-H3hikDuarrcab-31">
          <mxGeometry x="-3.75" y="-24" width="70" height="30" as="geometry" />
        </mxCell>
        <mxCell id="hmTdwW-H3hikDuarrcab-37" value="ElasticSearch" style="outlineConnect=0;gradientDirection=north;fillColor=#b0e3e6;strokeColor=#0e8088;dashed=0;verticalLabelPosition=bottom;verticalAlign=top;align=center;html=1;fontSize=12;fontStyle=0;aspect=fixed;shape=mxgraph.aws4.resourceIcon;resIcon=mxgraph.aws4.elasticsearch_service;" vertex="1" parent="dGvC6pgZO7xLLV9TXabl-1">
          <mxGeometry x="682" y="757" width="58" height="58" as="geometry" />
        </mxCell>
        <mxCell id="hmTdwW-H3hikDuarrcab-41" value="Redis" style="text;html=1;resizable=0;autosize=1;align=center;verticalAlign=middle;points=[];fillColor=none;strokeColor=none;rounded=0;dashed=1;fontFamily=Tahoma;fontSize=18;fontColor=#FFFFFF;" vertex="1" parent="dGvC6pgZO7xLLV9TXabl-1">
          <mxGeometry x="535" y="780" width="60" height="30" as="geometry" />
        </mxCell>
        <mxCell id="hmTdwW-H3hikDuarrcab-42" value="存储层" style="text;html=1;resizable=0;autosize=1;align=center;verticalAlign=middle;points=[];fillColor=none;strokeColor=none;rounded=0;dashed=1;fontFamily=Tahoma;fontSize=18;" vertex="1" parent="dGvC6pgZO7xLLV9TXabl-1">
          <mxGeometry x="243.75" y="750" width="70" height="30" as="geometry" />
        </mxCell>
        <mxCell id="hmTdwW-H3hikDuarrcab-43" value="域名解析" style="rounded=0;whiteSpace=wrap;html=1;strokeWidth=2;fillColor=#b1ddf0;fontSize=18;strokeColor=#10739e;" vertex="1" parent="dGvC6pgZO7xLLV9TXabl-1">
          <mxGeometry x="407.5" y="922" width="120" height="60" as="geometry" />
        </mxCell>
        <mxCell id="hmTdwW-H3hikDuarrcab-44" value="数据汇总" style="rounded=0;whiteSpace=wrap;html=1;strokeWidth=2;fillColor=#b1ddf0;fontSize=18;strokeColor=#10739e;" vertex="1" parent="dGvC6pgZO7xLLV9TXabl-1">
          <mxGeometry x="753.75" y="922" width="120" height="60" as="geometry" />
        </mxCell>
        <mxCell id="hmTdwW-H3hikDuarrcab-47" value="异步服务" style="text;html=1;resizable=0;autosize=1;align=center;verticalAlign=middle;points=[];fillColor=none;strokeColor=none;rounded=0;dashed=1;fontFamily=Tahoma;fontSize=18;" vertex="1" parent="dGvC6pgZO7xLLV9TXabl-1">
          <mxGeometry x="240" y="880" width="90" height="30" as="geometry" />
        </mxCell>
        <mxCell id="hmTdwW-H3hikDuarrcab-48" value="&lt;font face=&quot;Helvetica&quot;&gt;日&lt;br&gt;&lt;br&gt;志&lt;br&gt;&lt;br&gt;服&lt;br&gt;&lt;br&gt;务&lt;br&gt;&lt;br&gt;&lt;br&gt;&lt;br&gt;&lt;br&gt;监&lt;br&gt;&lt;br&gt;控&lt;br&gt;&lt;br&gt;告&lt;br&gt;&lt;br&gt;警&lt;/font&gt;" style="rounded=0;whiteSpace=wrap;html=1;dashed=1;strokeWidth=1;fillColor=#b1ddf0;fontFamily=Tahoma;fontSize=18;align=center;verticalAlign=top;strokeColor=#10739e;" vertex="1" parent="dGvC6pgZO7xLLV9TXabl-1">
          <mxGeometry x="950" y="580" width="50" height="430" as="geometry" />
        </mxCell>
        <mxCell id="hmTdwW-H3hikDuarrcab-49" value="" style="shape=doubleArrow;direction=south;whiteSpace=wrap;html=1;strokeWidth=1;fontFamily=Tahoma;fontSize=18;align=center;" vertex="1" parent="dGvC6pgZO7xLLV9TXabl-1">
          <mxGeometry x="584.25" y="470" width="30" height="39" as="geometry" />
        </mxCell>
      </root>
    </mxGraphModel>
  </diagram>
  <diagram id="2-H7RVLcDD5pEKRx3PeO" name="第 4 页">
    <mxGraphModel dx="1422" dy="738" grid="1" gridSize="10" guides="1" tooltips="1" connect="1" arrows="1" fold="1" page="1" pageScale="1" pageWidth="827" pageHeight="1169" math="0" shadow="0">
      <root>
        <mxCell id="YdsJwBiKvEDQz4YMBk5B-0" />
        <mxCell id="YdsJwBiKvEDQz4YMBk5B-1" parent="YdsJwBiKvEDQz4YMBk5B-0" />
        <mxCell id="YdsJwBiKvEDQz4YMBk5B-2" style="edgeStyle=orthogonalEdgeStyle;curved=1;rounded=0;orthogonalLoop=1;jettySize=auto;html=1;exitX=0.5;exitY=1;exitDx=0;exitDy=0;entryX=0.5;entryY=0;entryDx=0;entryDy=0;" edge="1" parent="YdsJwBiKvEDQz4YMBk5B-1" source="YdsJwBiKvEDQz4YMBk5B-3" target="YdsJwBiKvEDQz4YMBk5B-12">
          <mxGeometry relative="1" as="geometry" />
        </mxCell>
        <mxCell id="YdsJwBiKvEDQz4YMBk5B-3" value="域名配置服务" style="rounded=0;whiteSpace=wrap;html=1;fillColor=#dae8fc;strokeColor=#6c8ebf;" vertex="1" parent="YdsJwBiKvEDQz4YMBk5B-1">
          <mxGeometry x="409.5" y="1140" width="91" height="40" as="geometry" />
        </mxCell>
        <mxCell id="YdsJwBiKvEDQz4YMBk5B-4" style="edgeStyle=orthogonalEdgeStyle;curved=1;rounded=0;orthogonalLoop=1;jettySize=auto;html=1;entryX=1;entryY=0.583;entryDx=0;entryDy=0;entryPerimeter=0;" edge="1" parent="YdsJwBiKvEDQz4YMBk5B-1" source="YdsJwBiKvEDQz4YMBk5B-5" target="YdsJwBiKvEDQz4YMBk5B-17">
          <mxGeometry relative="1" as="geometry" />
        </mxCell>
        <mxCell id="YdsJwBiKvEDQz4YMBk5B-5" value="流量包" style="rounded=0;whiteSpace=wrap;html=1;fillColor=#dae8fc;strokeColor=#6c8ebf;" vertex="1" parent="YdsJwBiKvEDQz4YMBk5B-1">
          <mxGeometry x="289" y="1140" width="91" height="40" as="geometry" />
        </mxCell>
        <mxCell id="YdsJwBiKvEDQz4YMBk5B-6" style="edgeStyle=orthogonalEdgeStyle;curved=1;rounded=0;orthogonalLoop=1;jettySize=auto;html=1;exitX=1;exitY=0.5;exitDx=0;exitDy=0;entryX=-0.02;entryY=0.582;entryDx=0;entryDy=0;entryPerimeter=0;" edge="1" parent="YdsJwBiKvEDQz4YMBk5B-1" source="YdsJwBiKvEDQz4YMBk5B-7" target="YdsJwBiKvEDQz4YMBk5B-18">
          <mxGeometry relative="1" as="geometry" />
        </mxCell>
        <mxCell id="YdsJwBiKvEDQz4YMBk5B-7" value="刷新" style="rounded=0;whiteSpace=wrap;html=1;fillColor=#dae8fc;strokeColor=#6c8ebf;" vertex="1" parent="YdsJwBiKvEDQz4YMBk5B-1">
          <mxGeometry x="539" y="1140" width="91" height="40" as="geometry" />
        </mxCell>
        <mxCell id="YdsJwBiKvEDQz4YMBk5B-8" style="edgeStyle=orthogonalEdgeStyle;curved=1;rounded=0;orthogonalLoop=1;jettySize=auto;html=1;exitX=0.5;exitY=1;exitDx=0;exitDy=0;entryX=0.5;entryY=0;entryDx=0;entryDy=0;" edge="1" parent="YdsJwBiKvEDQz4YMBk5B-1" source="YdsJwBiKvEDQz4YMBk5B-12" target="YdsJwBiKvEDQz4YMBk5B-13">
          <mxGeometry relative="1" as="geometry" />
        </mxCell>
        <mxCell id="YdsJwBiKvEDQz4YMBk5B-9" style="edgeStyle=orthogonalEdgeStyle;curved=1;rounded=0;orthogonalLoop=1;jettySize=auto;html=1;exitX=0.5;exitY=1;exitDx=0;exitDy=0;" edge="1" parent="YdsJwBiKvEDQz4YMBk5B-1" source="YdsJwBiKvEDQz4YMBk5B-12" target="YdsJwBiKvEDQz4YMBk5B-14">
          <mxGeometry relative="1" as="geometry" />
        </mxCell>
        <mxCell id="YdsJwBiKvEDQz4YMBk5B-10" style="edgeStyle=orthogonalEdgeStyle;curved=1;rounded=0;orthogonalLoop=1;jettySize=auto;html=1;exitX=0.5;exitY=1;exitDx=0;exitDy=0;" edge="1" parent="YdsJwBiKvEDQz4YMBk5B-1" source="YdsJwBiKvEDQz4YMBk5B-12" target="YdsJwBiKvEDQz4YMBk5B-15">
          <mxGeometry relative="1" as="geometry" />
        </mxCell>
        <mxCell id="YdsJwBiKvEDQz4YMBk5B-11" style="edgeStyle=orthogonalEdgeStyle;curved=1;rounded=0;orthogonalLoop=1;jettySize=auto;html=1;exitX=0.5;exitY=1;exitDx=0;exitDy=0;entryX=0.5;entryY=0;entryDx=0;entryDy=0;" edge="1" parent="YdsJwBiKvEDQz4YMBk5B-1" source="YdsJwBiKvEDQz4YMBk5B-12" target="YdsJwBiKvEDQz4YMBk5B-16">
          <mxGeometry relative="1" as="geometry" />
        </mxCell>
        <mxCell id="YdsJwBiKvEDQz4YMBk5B-12" value="配置服务" style="rounded=0;whiteSpace=wrap;html=1;fillColor=#f8cecc;strokeColor=#b85450;" vertex="1" parent="YdsJwBiKvEDQz4YMBk5B-1">
          <mxGeometry x="400" y="1230" width="110" height="50" as="geometry" />
        </mxCell>
        <mxCell id="YdsJwBiKvEDQz4YMBk5B-13" value="DNS" style="rounded=0;whiteSpace=wrap;html=1;fillColor=#dae8fc;strokeColor=#6c8ebf;" vertex="1" parent="YdsJwBiKvEDQz4YMBk5B-1">
          <mxGeometry x="289.75" y="1340" width="64" height="40" as="geometry" />
        </mxCell>
        <mxCell id="YdsJwBiKvEDQz4YMBk5B-14" value="加速平台" style="rounded=0;whiteSpace=wrap;html=1;fillColor=#dae8fc;strokeColor=#6c8ebf;" vertex="1" parent="YdsJwBiKvEDQz4YMBk5B-1">
          <mxGeometry x="373.75" y="1340" width="64" height="40" as="geometry" />
        </mxCell>
        <mxCell id="YdsJwBiKvEDQz4YMBk5B-15" value="静态平台" style="rounded=0;whiteSpace=wrap;html=1;fillColor=#dae8fc;strokeColor=#6c8ebf;" vertex="1" parent="YdsJwBiKvEDQz4YMBk5B-1">
          <mxGeometry x="463.75" y="1340" width="64" height="40" as="geometry" />
        </mxCell>
        <mxCell id="YdsJwBiKvEDQz4YMBk5B-16" value="数据持久化" style="rounded=0;whiteSpace=wrap;html=1;fillColor=#dae8fc;strokeColor=#6c8ebf;" vertex="1" parent="YdsJwBiKvEDQz4YMBk5B-1">
          <mxGeometry x="556.25" y="1340" width="64" height="40" as="geometry" />
        </mxCell>
        <mxCell id="YdsJwBiKvEDQz4YMBk5B-17" value="计费" style="rounded=0;whiteSpace=wrap;html=1;fillColor=#f8cecc;strokeColor=#b85450;" vertex="1" parent="YdsJwBiKvEDQz4YMBk5B-1">
          <mxGeometry x="180" y="1140" width="60" height="180" as="geometry" />
        </mxCell>
        <mxCell id="YdsJwBiKvEDQz4YMBk5B-18" value="刷新" style="rounded=0;whiteSpace=wrap;html=1;fillColor=#f8cecc;strokeColor=#b85450;" vertex="1" parent="YdsJwBiKvEDQz4YMBk5B-1">
          <mxGeometry x="670" y="1140" width="50" height="170" as="geometry" />
        </mxCell>
      </root>
    </mxGraphModel>
  </diagram>
  <diagram id="WFoGs5soTeIKOa7ZHf3Y" name="第 5 页">
    <mxGraphModel dx="1422" dy="738" grid="1" gridSize="10" guides="1" tooltips="1" connect="1" arrows="1" fold="1" page="1" pageScale="1" pageWidth="827" pageHeight="1169" math="0" shadow="0">
      <root>
        <mxCell id="YNgsm8CcNAcJ1BU5uPGQ-0" />
        <mxCell id="YNgsm8CcNAcJ1BU5uPGQ-1" parent="YNgsm8CcNAcJ1BU5uPGQ-0" />
        <mxCell id="YNgsm8CcNAcJ1BU5uPGQ-8" value="" style="rounded=0;whiteSpace=wrap;html=1;strokeWidth=2;fontFamily=Tahoma;fontSize=18;align=center;dashed=1;" vertex="1" parent="YNgsm8CcNAcJ1BU5uPGQ-1">
          <mxGeometry x="320" y="80" width="170" height="340" as="geometry" />
        </mxCell>
        <mxCell id="4Kd0vaVeTCG9seOShrFM-17" value="" style="rounded=0;whiteSpace=wrap;html=1;dashed=1;strokeWidth=2;fontFamily=Tahoma;fontSize=18;align=center;" vertex="1" parent="YNgsm8CcNAcJ1BU5uPGQ-1">
          <mxGeometry x="343" y="200" width="130" height="200" as="geometry" />
        </mxCell>
        <mxCell id="4Kd0vaVeTCG9seOShrFM-6" style="edgeStyle=orthogonalEdgeStyle;curved=1;rounded=0;orthogonalLoop=1;jettySize=auto;html=1;exitX=1;exitY=0.5;exitDx=0;exitDy=0;strokeWidth=2;fontFamily=Tahoma;fontSize=18;fontColor=#000000;" edge="1" parent="YNgsm8CcNAcJ1BU5uPGQ-1" source="YNgsm8CcNAcJ1BU5uPGQ-3">
          <mxGeometry relative="1" as="geometry">
            <mxPoint x="140" y="255" as="targetPoint" />
          </mxGeometry>
        </mxCell>
        <mxCell id="YNgsm8CcNAcJ1BU5uPGQ-3" value="" style="shape=image;verticalLabelPosition=bottom;labelBackgroundColor=#ffffff;verticalAlign=top;aspect=fixed;imageAspect=0;image=data:image/svg+xml,PHN2ZyB4bWxucz0iaHR0cDovL3d3dy53My5vcmcvMjAwMC9zdmciIHhtbG5zOnhsaW5rPSJodHRwOi8vd3d3LnczLm9yZy8xOTk5L3hsaW5rIiB3aWR0aD0iNDhweCIgaGVpZ2h0PSI0OHB4IiB2aWV3Qm94PSIwIDAgMzIgMzIiIHZlcnNpb249IjEuMSI+JiN4YTsgICAgPCEtLSBHZW5lcmF0b3I6IFNrZXRjaCA1Mi42ICg2NzQ5MSkgLSBodHRwOi8vd3d3LmJvaGVtaWFuY29kaW5nLmNvbS9za2V0Y2ggLS0+JiN4YTsgICAgPHRpdGxlPuWwj+eoi+W6j+S6keW8gOWPkS0zMnB4PC90aXRsZT4mI3hhOyAgICA8ZGVzYz5DcmVhdGVkIHdpdGggU2tldGNoLjwvZGVzYz4mI3hhOyAgICA8ZyBpZD0i5bCP56iL5bqP5LqR5byA5Y+RLTMycHgiIHN0cm9rZT0ibm9uZSIgc3Ryb2tlLXdpZHRoPSIxIiBmaWxsPSJub25lIiBmaWxsLXJ1bGU9ImV2ZW5vZGQiPiYjeGE7ICAgICAgICA8cmVjdCBpZD0iUmVjdGFuZ2xlLUNvcHkiIGZpbGw9IiM0NDQ0NDRGRiIgb3BhY2l0eT0iMCIgeD0iMCIgeT0iMCIgd2lkdGg9IjMyIiBoZWlnaHQ9IjMyIi8+JiN4YTsgICAgICAgIDxwYXRoIGQ9Ik0xNiwzIEM4LjgyMzcyNDk0LDMuMDA4MjY2MDIgMy4wMDgyNjYwMiw4LjgyMzcyNDk0IDMsMTYgQzMsMjMuMTc5NzAxNyA4LjgyMDI5ODI1LDI5IDE2LDI5IEMyMy4xNzk3MDE3LDI5IDI5LDIzLjE3OTcwMTcgMjksMTYgQzI5LDguODIwMjk4MjUgMjMuMTc5NzAxNywzIDE2LDMgWiBNMTYsMSBDMjQuMjg0MjcxMiwxIDMxLDcuNzE1NzI4NzUgMzEsMTYgQzMxLDI0LjI4NDI3MTIgMjQuMjg0MjcxMiwzMSAxNiwzMSBDNy43MTU3Mjg3NSwzMSAxLDI0LjI4NDI3MTIgMSwxNiBDMSw3LjcxNTcyODc1IDcuNzE1NzI4NzUsMSAxNiwxIFogTTE5LjUsOC42NTEgQzIxLjMxODkyNTEsOC42NTMwMDQwNSAyMi45NTc3Nzg0LDkuNzQ5ODI4NTQgMjMuNjUzMTgzNywxMS40MzA1NzM2IEMyNC4zNDg1ODg5LDEzLjExMTMxODYgMjMuOTYzNzc5OCwxNS4wNDU0Mjk5IDIyLjY3OCwxNi4zMzIgQzIyLjIxMTIyOTEsMTYuNzkyNTM1OCAyMS42NDgwMDIxLDE3LjE0MzY1NjEgMjEuMDI5LDE3LjM2IEMyMS4wMDgsMTcuMzcgMjAuOTg2LDE3LjM3OCAyMC45NjQsMTcuMzg2IEwyMC45NDgsMTcuMzkyIEMyMC44NDE0MTQzLDE3LjQzMzYwMTIgMjAuNzI4Mzg0MSwxNy40NTYyNzQ5IDIwLjYxNCwxNy40NTkgQzIwLjEzNzQyNzcsMTcuNDUzNzk4MyAxOS43MzA3NTM5LDE3LjExMjk5MDcgMTkuNjQyMjkxLDE2LjY0NDY3MTggQzE5LjU1MzgyODEsMTYuMTc2MzUzIDE5LjgwODE2MjgsMTUuNzEwNjg0MyAyMC4yNSwxNS41MzIgTDIwLjI1LDE1LjUyNiBDMjEuNDYyMDY3NiwxNS4xNTA1MTYyIDIyLjIwMDYwMjgsMTMuOTI2NTc3IDIxLjk2Nzc2NzEsMTIuNjc5MjI2NSBDMjEuNzM0OTMxNCwxMS40MzE4NzU5IDIwLjYwNDU4MzQsMTAuNTU2NzkwMyAxOS4zMzg2Nzg0LDEwLjY0Mzg1NTQgQzE4LjA3Mjc3MzMsMTAuNzMwOTIwNCAxNy4wNzI4NzMzLDExLjc1MjUxNzggMTcuMDEzLDEzLjAyIEwxNy4wMDMsMTMuMDIgTDE3LjAwMywxMy4xMjggQzE3LjAwMywxMy4xNDQgMTcuMDAzLDEzLjE1OSAxNy4wMDMsMTMuMTc1IEwxNy4wMDMsMTYuODkzIEMxNi45OTQsMTYuODg3IDE2Ljk4NiwxNi44NzggMTYuOTc2LDE2Ljg3MSBMMTYuOTc2LDE4LjYgQzE3LjEwMTY0NDEsMjAuNjcwNzQ5NyAxNS43OTUzNzEsMjIuNTU5MDQ3IDEzLjgxMzM2NSwyMy4xNzE3ODEzIEMxMS44MzEzNTksMjMuNzg0NTE1NSA5LjY4NzMxMzg0LDIyLjk2Mjg3OTEgOC42MjIzODkxNywyMS4xODI1MDY1IEM3LjU1NzQ2NDQ5LDE5LjQwMjEzNCA3Ljg0NzY2NjA3LDE3LjEyNDQ1OTkgOS4zMjUsMTUuNjY4IEM5Ljc5MTc3MDg2LDE1LjIwNzQ2NDIgMTAuMzU0OTk3OSwxNC44NTYzNDM5IDEwLjk3NCwxNC42NCBDMTAuOTk1LDE0LjYzIDExLjAxNywxNC42MjIgMTEuMDM5LDE0LjYxNCBMMTEuMDU1LDE0LjYwOCBDMTEuMTYxNTg1NywxNC41NjYzOTg4IDExLjI3NDYxNTksMTQuNTQzNzI1MSAxMS4zODksMTQuNTQxIEMxMS44NjU1NzIzLDE0LjU0NjIwMTcgMTIuMjcyMjQ2MSwxNC44ODcwMDkzIDEyLjM2MDcwOSwxNS4zNTUzMjgyIEMxMi40NDkxNzE5LDE1LjgyMzY0NyAxMi4xOTQ4MzcyLDE2LjI4OTMxNTcgMTEuNzUzLDE2LjQ2OCBMMTEuNzUzLDE2LjQ3NCBDMTAuNTQwOTMyNCwxNi44NDk0ODM4IDkuODAyMzk3MjEsMTguMDczNDIzIDEwLjAzNTIzMjksMTkuMzIwNzczNSBDMTAuMjY4MDY4NiwyMC41NjgxMjQxIDExLjM5ODQxNjYsMjEuNDQzMjA5NyAxMi42NjQzMjE2LDIxLjM1NjE0NDYgQzEzLjkzMDIyNjcsMjEuMjY5MDc5NiAxNC45MzAxMjY3LDIwLjI0NzQ4MjIgMTQuOTksMTguOTggTDE1LDE4Ljk4IEwxNSwxOC44NzIgQzE1LDE4Ljg1NiAxNSwxOC44NDEgMTUsMTguODI1IEwxNSwxNS4xMDcgTDE1LjAwNywxNS4xMTUgTDE1LjAwNywxMy4yMjcgQzE0Ljk4MzYxNjksMTIuMDIwNzQ3NCAxNS40NDY3NzE2LDEwLjg1NTg1ODUgMTYuMjkyMDM4MSw5Ljk5NDk3NzI0IEMxNy4xMzczMDQ3LDkuMTM0MDk1OTYgMTguMjkzNTIxNSw4LjY0OTY5ODMzIDE5LjUsOC42NTEgWiIgaWQ9IkNvbWJpbmVkLVNoYXBlIiBmaWxsPSIjMDBBNEZGRkYiIGZpbGwtcnVsZT0ibm9uemVybyIvPiYjeGE7ICAgIDwvZz4mI3hhOzwvc3ZnPg==;" vertex="1" parent="YNgsm8CcNAcJ1BU5uPGQ-1">
          <mxGeometry x="10" y="220" width="70" height="70" as="geometry" />
        </mxCell>
        <mxCell id="4Kd0vaVeTCG9seOShrFM-16" style="edgeStyle=entityRelationEdgeStyle;rounded=0;orthogonalLoop=1;jettySize=auto;html=1;exitX=1;exitY=0.5;exitDx=0;exitDy=0;strokeWidth=2;fontFamily=Tahoma;fontSize=18;fontColor=#000000;" edge="1" parent="YNgsm8CcNAcJ1BU5uPGQ-1" source="YNgsm8CcNAcJ1BU5uPGQ-4">
          <mxGeometry relative="1" as="geometry">
            <mxPoint x="320" y="255" as="targetPoint" />
          </mxGeometry>
        </mxCell>
        <mxCell id="YNgsm8CcNAcJ1BU5uPGQ-4" value="云API" style="rounded=1;whiteSpace=wrap;html=1;strokeWidth=1;fontFamily=Tahoma;fontSize=18;align=center;" vertex="1" parent="YNgsm8CcNAcJ1BU5uPGQ-1">
          <mxGeometry x="150" y="237.5" width="100" height="35" as="geometry" />
        </mxCell>
        <mxCell id="4Kd0vaVeTCG9seOShrFM-14" style="edgeStyle=entityRelationEdgeStyle;rounded=0;orthogonalLoop=1;jettySize=auto;html=1;strokeWidth=2;fontFamily=Tahoma;fontSize=18;fontColor=#000000;" edge="1" parent="YNgsm8CcNAcJ1BU5uPGQ-1" source="YNgsm8CcNAcJ1BU5uPGQ-5">
          <mxGeometry relative="1" as="geometry">
            <mxPoint x="570" y="125" as="targetPoint" />
          </mxGeometry>
        </mxCell>
        <mxCell id="YNgsm8CcNAcJ1BU5uPGQ-5" value="数据查询" style="rounded=1;whiteSpace=wrap;html=1;strokeWidth=1;fontFamily=Tahoma;fontSize=18;align=center;fillColor=#d5e8d4;strokeColor=#82b366;gradientColor=#97d077;" vertex="1" parent="YNgsm8CcNAcJ1BU5uPGQ-1">
          <mxGeometry x="360" y="143.82" width="100" height="35" as="geometry" />
        </mxCell>
        <mxCell id="YNgsm8CcNAcJ1BU5uPGQ-6" value="域名管理" style="rounded=1;whiteSpace=wrap;html=1;strokeWidth=1;fontFamily=Tahoma;fontSize=18;align=center;fillColor=#b1ddf0;strokeColor=#10739e;" vertex="1" parent="YNgsm8CcNAcJ1BU5uPGQ-1">
          <mxGeometry x="360" y="215" width="100" height="35" as="geometry" />
        </mxCell>
        <mxCell id="YNgsm8CcNAcJ1BU5uPGQ-9" value="PHP Server" style="text;html=1;resizable=0;autosize=1;align=center;verticalAlign=middle;points=[];fillColor=none;strokeColor=none;rounded=0;fontFamily=Tahoma;fontSize=18;fontColor=#000000;" vertex="1" parent="YNgsm8CcNAcJ1BU5uPGQ-1">
          <mxGeometry x="330" y="95" width="100" height="30" as="geometry" />
        </mxCell>
        <mxCell id="T026hIv4s3F_sZn9lj1j-0" value="ElasticSearch" style="outlineConnect=0;gradientDirection=north;fillColor=#b0e3e6;strokeColor=#0e8088;dashed=0;verticalLabelPosition=bottom;verticalAlign=top;align=center;html=1;fontSize=12;fontStyle=0;aspect=fixed;shape=mxgraph.aws4.resourceIcon;resIcon=mxgraph.aws4.elasticsearch_service;" vertex="1" parent="YNgsm8CcNAcJ1BU5uPGQ-1">
          <mxGeometry x="580.27" y="207" width="58" height="58" as="geometry" />
        </mxCell>
        <mxCell id="4Kd0vaVeTCG9seOShrFM-9" style="edgeStyle=orthogonalEdgeStyle;curved=1;rounded=0;orthogonalLoop=1;jettySize=auto;html=1;strokeWidth=2;fontFamily=Tahoma;fontSize=18;fontColor=#000000;" edge="1" parent="YNgsm8CcNAcJ1BU5uPGQ-1" source="T026hIv4s3F_sZn9lj1j-2">
          <mxGeometry relative="1" as="geometry">
            <mxPoint x="609" y="285" as="targetPoint" />
          </mxGeometry>
        </mxCell>
        <mxCell id="T026hIv4s3F_sZn9lj1j-2" value="" style="outlineConnect=0;fontColor=#232F3E;gradientColor=none;fillColor=#3334B9;strokeColor=none;dashed=0;verticalLabelPosition=bottom;verticalAlign=top;align=center;html=1;fontSize=12;fontStyle=0;aspect=fixed;pointerEvents=1;shape=mxgraph.aws4.rds_mysql_instance_alt;" vertex="1" parent="YNgsm8CcNAcJ1BU5uPGQ-1">
          <mxGeometry x="570.27" y="333.5" width="78" height="78" as="geometry" />
        </mxCell>
        <mxCell id="4Kd0vaVeTCG9seOShrFM-2" value="用户管理" style="rounded=1;whiteSpace=wrap;html=1;strokeWidth=1;fontFamily=Tahoma;fontSize=18;align=center;fillColor=#b1ddf0;strokeColor=#10739e;" vertex="1" parent="YNgsm8CcNAcJ1BU5uPGQ-1">
          <mxGeometry x="360" y="265" width="100" height="35" as="geometry" />
        </mxCell>
        <mxCell id="4Kd0vaVeTCG9seOShrFM-3" value="刷新" style="rounded=1;whiteSpace=wrap;html=1;strokeWidth=1;fontFamily=Tahoma;fontSize=18;align=center;fillColor=#b1ddf0;strokeColor=#10739e;" vertex="1" parent="YNgsm8CcNAcJ1BU5uPGQ-1">
          <mxGeometry x="360" y="310.5" width="100" height="35" as="geometry" />
        </mxCell>
        <mxCell id="4Kd0vaVeTCG9seOShrFM-5" value="流量包管理" style="rounded=1;whiteSpace=wrap;html=1;strokeWidth=1;fontFamily=Tahoma;fontSize=18;align=center;fillColor=#b1ddf0;strokeColor=#10739e;" vertex="1" parent="YNgsm8CcNAcJ1BU5uPGQ-1">
          <mxGeometry x="359" y="355" width="100" height="35" as="geometry" />
        </mxCell>
        <mxCell id="4Kd0vaVeTCG9seOShrFM-10" value="" style="group" vertex="1" connectable="0" parent="YNgsm8CcNAcJ1BU5uPGQ-1">
          <mxGeometry x="574.27" y="96.99999999999997" width="68.26999999999998" height="57.349999999999994" as="geometry" />
        </mxCell>
        <mxCell id="4Kd0vaVeTCG9seOShrFM-0" value="" style="aspect=fixed;html=1;points=[];align=center;image;fontSize=12;image=img/lib/mscae/Cache_Redis_Product.svg;strokeWidth=2;fillColor=#B3B3B3;" vertex="1" parent="4Kd0vaVeTCG9seOShrFM-10">
          <mxGeometry width="68.27" height="57.35" as="geometry" />
        </mxCell>
        <mxCell id="4Kd0vaVeTCG9seOShrFM-1" value="Redis" style="text;html=1;resizable=0;autosize=1;align=center;verticalAlign=middle;points=[];fillColor=none;strokeColor=none;rounded=0;dashed=1;fontFamily=Tahoma;fontSize=18;fontColor=#FFFFFF;" vertex="1" parent="4Kd0vaVeTCG9seOShrFM-10">
          <mxGeometry x="6" y="18" width="60" height="30" as="geometry" />
        </mxCell>
        <mxCell id="4Kd0vaVeTCG9seOShrFM-12" style="edgeStyle=orthogonalEdgeStyle;curved=1;rounded=0;orthogonalLoop=1;jettySize=auto;html=1;strokeWidth=2;fontFamily=Tahoma;fontSize=18;fontColor=#000000;" edge="1" parent="YNgsm8CcNAcJ1BU5uPGQ-1" source="4Kd0vaVeTCG9seOShrFM-1">
          <mxGeometry relative="1" as="geometry">
            <mxPoint x="610.27" y="205" as="targetPoint" />
          </mxGeometry>
        </mxCell>
        <mxCell id="4Kd0vaVeTCG9seOShrFM-15" style="edgeStyle=orthogonalEdgeStyle;curved=1;rounded=0;orthogonalLoop=1;jettySize=auto;html=1;strokeWidth=2;fontFamily=Tahoma;fontSize=18;fontColor=#000000;exitX=1.015;exitY=0.865;exitDx=0;exitDy=0;exitPerimeter=0;" edge="1" parent="YNgsm8CcNAcJ1BU5uPGQ-1" source="4Kd0vaVeTCG9seOShrFM-17">
          <mxGeometry relative="1" as="geometry">
            <mxPoint x="490" y="372" as="sourcePoint" />
            <mxPoint x="570.27" y="372" as="targetPoint" />
          </mxGeometry>
        </mxCell>
      </root>
    </mxGraphModel>
  </diagram>
</mxfile>
